<?xml version="1.0" encoding="UTF-8" standalone="no"?>
<svg
   xmlns:dc="http://purl.org/dc/elements/1.1/"
   xmlns:cc="http://creativecommons.org/ns#"
   xmlns:rdf="http://www.w3.org/1999/02/22-rdf-syntax-ns#"
   xmlns:svg="http://www.w3.org/2000/svg"
   xmlns="http://www.w3.org/2000/svg"
   version="1.1"
   viewBox="0 0 32 32"
   height="32"
   width="32"
   id="svg8">
  <metadata
     id="metadata830">
    <rdf:RDF>
      <cc:Work
         rdf:about="">
        <dc:format>image/svg+xml</dc:format>
        <dc:type
           rdf:resource="http://purl.org/dc/dcmitype/StillImage" />
        <dc:title></dc:title>
      </cc:Work>
    </rdf:RDF>
  </metadata>
  <defs
     id="defs828" />
  <path
     style="fill:#cc0000;fill-opacity:1"
     id="path815"
     d="m 27.428575,31.99996 h 4.57143 V 11.08497 c -0.2449,-0.22458 -0.4754,-0.46416 -0.73972,-0.66648 -0.24233,-0.1855 -0.49297,-0.36072 -0.75181,-0.52326 -0.25883,-0.16254 -0.52594,-0.31244 -0.80143,-0.44796 -0.27548,-0.13552 -0.55932,-0.25671 -0.85162,-0.36114 -0.2923,-0.10444 -0.59285,-0.19204 -0.90212,-0.26134 -0.1702,-0.0382 -0.34936,-0.0561 -0.52473,-0.0827 z" />
  <path
     style="fill:#cc0000;fill-opacity:1"
     id="path817"
     d="m 25.143005,8.7365 c -0.0696,0.01 -0.13531,0.01 -0.20553,0.0213 -0.36114,0.0605 -0.73096,0.14584 -1.1097,0.25779 -0.37875,0.11194 -0.76635,0.25071 -1.16287,0.41813 -0.39651,0.16742 -0.80217,0.36364 -1.21661,0.59059 -0.28603,0.15663 -0.58208,0.34843 -0.87672,0.53506 V 32 h 4.57143 z" />
  <path
     style="fill:#cc0000;fill-opacity:1"
     id="path819"
     d="M 18.285715,31.99996 V 12.25728 c -0.26985,0.22799 -0.53611,0.44226 -0.81235,0.69541 -0.46916,0.42994 -0.9477,0.8969 -1.43542,1.40264 -0.48772,0.50574 -0.98479,1.05033 -1.49123,1.63592 -0.27238,0.31496 -0.55459,0.67301 -0.83243,1.01197 v 14.99674 z" />
  <path
     style="fill:#cc0000;fill-opacity:1"
     id="path821"
     d="M 11.428725,31.99996 V 19.53211 c -0.0369,0.0321 -0.0723,0.072 -0.10926,0.10335 -0.28897,0.2449 -0.58224,0.46624 -0.8788,0.6653 -0.29656,0.19906 -0.59649,0.3757 -0.89946,0.53152 -0.30296,0.15583 -0.609,0.29084 -0.91718,0.40603 -0.30818,0.1152 -0.61856,0.21075 -0.93076,0.28791 -0.277332,0.0686 -0.556356,0.11751 -0.835974,0.15799 v 10.31575 z" />
  <path
     style="fill:#cc0000;fill-opacity:1"
     id="path823"
     d="M 4.571429,31.99996 V 21.72821 c -0.222962,-0.021 -0.446034,-0.04 -0.668542,-0.0744 C 3.270141,21.55591 2.64006,21.40547 2.017441,21.21264 1.394824,21.01982 0.77954,20.78475 0.176586,20.51782 0.116336,20.49112 0.060003,20.45652 0,20.42922 v 11.57075 z" />
</svg>
